<mxfile host="Electron" modified="2024-02-01T08:30:46.268Z" agent="Mozilla/5.0 (Macintosh; Intel Mac OS X 10_15_7) AppleWebKit/537.36 (KHTML, like Gecko) draw.io/23.0.2 Chrome/120.0.6099.109 Electron/28.1.0 Safari/537.36" etag="bE9d66qeR9gGRirgFOoT" version="23.0.2" type="device">
  <diagram name="Page-1" id="qBD6op3qUp-WdUlCAM_y">
    <mxGraphModel dx="3664" dy="979" grid="1" gridSize="10" guides="1" tooltips="1" connect="1" arrows="1" fold="1" page="1" pageScale="1" pageWidth="850" pageHeight="1100" math="0" shadow="0">
      <root>
        <mxCell id="0" />
        <mxCell id="1" parent="0" />
        <mxCell id="UCvxWR03_ax1GN8wgk-j-15" value="&lt;p style=&quot;margin:0px;margin-top:4px;text-align:center;&quot;&gt;&lt;b&gt;Manure&lt;/b&gt;&lt;/p&gt;&lt;p style=&quot;margin:0px;margin-top:4px;text-align:center;&quot;&gt;&lt;b&gt;RecyclingProduct&lt;/b&gt;&lt;/p&gt;&lt;hr size=&quot;1&quot;&gt;&lt;p style=&quot;margin:0px;margin-left:4px;&quot;&gt;&amp;nbsp;&lt;br&gt;&lt;/p&gt;&lt;hr size=&quot;1&quot;&gt;&lt;p style=&quot;margin:0px;margin-left:4px;&quot;&gt;&lt;br&gt;&lt;/p&gt;" style="verticalAlign=top;align=left;overflow=fill;fontSize=12;fontFamily=Verdana;html=1;sketch=0;strokeWidth=2;fillColor=#e1d5e7;strokeColor=#9673a6;" vertex="1" parent="1">
          <mxGeometry x="-1924.65" y="496.25" width="139.3" height="85" as="geometry" />
        </mxCell>
        <mxCell id="UCvxWR03_ax1GN8wgk-j-17" value="" style="endArrow=classic;html=1;sketch=0;fontFamily=Verdana;curved=1;" edge="1" parent="1" source="UCvxWR03_ax1GN8wgk-j-15" target="UCvxWR03_ax1GN8wgk-j-23">
          <mxGeometry width="50" height="50" relative="1" as="geometry">
            <mxPoint x="-1319.3099999999997" y="604.7" as="sourcePoint" />
            <mxPoint x="-1498.8" y="935.2650000000001" as="targetPoint" />
          </mxGeometry>
        </mxCell>
        <mxCell id="UCvxWR03_ax1GN8wgk-j-23" value="&lt;i style=&quot;border-color: var(--border-color); text-align: center;&quot;&gt;&lt;span style=&quot;white-space: pre;&quot;&gt; &lt;/span&gt;&amp;nbsp; &amp;nbsp; &amp;nbsp; &amp;nbsp;&lt;b style=&quot;background-color: initial;&quot;&gt;ManureRecycling&lt;/b&gt;&lt;br&gt;&lt;/i&gt;&lt;p style=&quot;margin:0px;margin-top:4px;text-align:center;&quot;&gt;&lt;b&gt;ProductType&lt;/b&gt;&lt;/p&gt;&lt;hr size=&quot;1&quot;&gt;&lt;p style=&quot;margin:0px;margin-left:4px;&quot;&gt;&amp;nbsp;item: EnumeratedItem&lt;br&gt;&lt;/p&gt;&lt;hr size=&quot;1&quot;&gt;&lt;p style=&quot;margin:0px;margin-left:4px;&quot;&gt;&lt;br&gt;&lt;/p&gt;" style="verticalAlign=top;align=left;overflow=fill;fontSize=12;fontFamily=Verdana;html=1;sketch=0;strokeWidth=2;" vertex="1" parent="1">
          <mxGeometry x="-1920" y="719.5699999999999" width="180" height="103.5" as="geometry" />
        </mxCell>
        <mxCell id="UCvxWR03_ax1GN8wgk-j-24" value="" style="rounded=0;whiteSpace=wrap;html=1;fillColor=#dae8fc;strokeColor=#6c8ebf;fontFamily=Verdana;" vertex="1" parent="1">
          <mxGeometry x="-2530" y="424.25" width="237.5" height="250" as="geometry" />
        </mxCell>
        <mxCell id="UCvxWR03_ax1GN8wgk-j-25" value="eCH-0266 Animals" style="text;html=1;strokeColor=none;fillColor=none;align=left;verticalAlign=middle;whiteSpace=wrap;rounded=0;strokeWidth=2;fontFamily=Verdana;" vertex="1" parent="1">
          <mxGeometry x="-2522.5" y="424.25" width="290" height="30" as="geometry" />
        </mxCell>
        <mxCell id="UCvxWR03_ax1GN8wgk-j-26" value="&lt;p style=&quot;margin:0px;margin-top:4px;text-align:center;&quot;&gt;&lt;b&gt;ZoologicalAnimal&lt;/b&gt;&lt;/p&gt;&lt;hr size=&quot;1&quot;&gt;&lt;p style=&quot;margin:0px;margin-left:4px;&quot;&gt;&amp;nbsp;&amp;nbsp;&lt;br&gt;&lt;/p&gt;&lt;hr size=&quot;1&quot;&gt;&lt;p style=&quot;margin:0px;margin-left:4px;&quot;&gt;&lt;br&gt;&lt;/p&gt;" style="verticalAlign=top;align=left;overflow=fill;fontSize=12;fontFamily=Verdana;html=1;sketch=0;strokeWidth=2;" vertex="1" parent="1">
          <mxGeometry x="-2496.25" y="467.75" width="170" height="65" as="geometry" />
        </mxCell>
        <mxCell id="UCvxWR03_ax1GN8wgk-j-27" value="&lt;p style=&quot;margin:0px;margin-top:4px;text-align:center;&quot;&gt;&lt;b&gt;ManureDerivation&lt;/b&gt;&lt;/p&gt;&lt;hr size=&quot;1&quot;&gt;&lt;p style=&quot;margin:0px;margin-left:4px;&quot;&gt;&amp;nbsp; +percentage: decimal&lt;br&gt;&lt;/p&gt;&lt;hr size=&quot;1&quot;&gt;&lt;p style=&quot;margin:0px;margin-left:4px;&quot;&gt;&lt;br&gt;&lt;/p&gt;" style="verticalAlign=top;align=left;overflow=fill;fontSize=12;fontFamily=Verdana;html=1;sketch=0;strokeWidth=2;" vertex="1" parent="1">
          <mxGeometry x="-2230" y="465.25" width="180" height="70" as="geometry" />
        </mxCell>
        <mxCell id="UCvxWR03_ax1GN8wgk-j-28" value="" style="endArrow=classic;html=1;sketch=0;fontFamily=Verdana;curved=1;entryX=1;entryY=0.5;entryDx=0;entryDy=0;" edge="1" parent="1" source="UCvxWR03_ax1GN8wgk-j-27" target="UCvxWR03_ax1GN8wgk-j-26">
          <mxGeometry width="50" height="50" relative="1" as="geometry">
            <mxPoint x="-2191.41" y="847.8199999999999" as="sourcePoint" />
            <mxPoint x="-2367.5" y="853.0678247961216" as="targetPoint" />
          </mxGeometry>
        </mxCell>
        <mxCell id="UCvxWR03_ax1GN8wgk-j-29" value="&lt;p style=&quot;margin:0px;margin-top:4px;text-align:center;&quot;&gt;&lt;b&gt;StableSystem&lt;/b&gt;&lt;/p&gt;&lt;hr size=&quot;1&quot;&gt;&lt;p style=&quot;margin:0px;margin-left:4px;&quot;&gt;&amp;nbsp;item: EnumeratedItem&lt;br&gt;&lt;/p&gt;&lt;hr size=&quot;1&quot;&gt;&lt;p style=&quot;margin:0px;margin-left:4px;&quot;&gt;&lt;br&gt;&lt;/p&gt;" style="verticalAlign=top;align=left;overflow=fill;fontSize=12;fontFamily=Verdana;html=1;sketch=0;strokeWidth=2;" vertex="1" parent="1">
          <mxGeometry x="-2416" y="723.75" width="180" height="100" as="geometry" />
        </mxCell>
        <mxCell id="UCvxWR03_ax1GN8wgk-j-30" value="" style="endArrow=classic;html=1;sketch=0;fontFamily=Verdana;curved=1;" edge="1" parent="1" source="UCvxWR03_ax1GN8wgk-j-27" target="UCvxWR03_ax1GN8wgk-j-29">
          <mxGeometry width="50" height="50" relative="1" as="geometry">
            <mxPoint x="-2191.41" y="847.8199999999999" as="sourcePoint" />
            <mxPoint x="-2367.5" y="853.0678247961216" as="targetPoint" />
          </mxGeometry>
        </mxCell>
        <mxCell id="UCvxWR03_ax1GN8wgk-j-31" value="&lt;p style=&quot;margin:0px;margin-top:4px;text-align:center;&quot;&gt;&lt;b style=&quot;background-color: initial;&quot;&gt;Utilisation&lt;/b&gt;&lt;br&gt;&lt;/p&gt;&lt;hr size=&quot;1&quot;&gt;&lt;p style=&quot;margin:0px;margin-left:4px;&quot;&gt;+ item: EnumeratedItem&lt;br&gt;&lt;/p&gt;&lt;hr size=&quot;1&quot;&gt;&lt;p style=&quot;margin:0px;margin-left:4px;&quot;&gt;&lt;br&gt;&lt;/p&gt;" style="verticalAlign=top;align=left;overflow=fill;fontSize=12;fontFamily=Verdana;html=1;sketch=0;strokeWidth=2;" vertex="1" parent="1">
          <mxGeometry x="-2500" y="559.5" width="170" height="94.75" as="geometry" />
        </mxCell>
        <mxCell id="UCvxWR03_ax1GN8wgk-j-32" value="" style="endArrow=classic;html=1;sketch=0;fontFamily=Verdana;curved=1;" edge="1" parent="1" source="UCvxWR03_ax1GN8wgk-j-27" target="UCvxWR03_ax1GN8wgk-j-31">
          <mxGeometry width="50" height="50" relative="1" as="geometry">
            <mxPoint x="-2143.35" y="875.75" as="sourcePoint" />
            <mxPoint x="-2285.14846743295" y="1086.75" as="targetPoint" />
          </mxGeometry>
        </mxCell>
        <mxCell id="UCvxWR03_ax1GN8wgk-j-33" value="0..1" style="text;html=1;strokeColor=none;fillColor=none;align=center;verticalAlign=middle;whiteSpace=wrap;rounded=0;" vertex="1" parent="1">
          <mxGeometry x="-2335" y="578.25" width="60" height="30" as="geometry" />
        </mxCell>
        <mxCell id="UCvxWR03_ax1GN8wgk-j-37" value="&lt;p style=&quot;margin:0px;margin-top:4px;text-align:center;&quot;&gt;&lt;b&gt;ManureRecycling&lt;/b&gt;&lt;/p&gt;&lt;p style=&quot;margin:0px;margin-top:4px;text-align:center;&quot;&gt;&lt;b style=&quot;background-color: initial;&quot;&gt;ProductCategory&lt;/b&gt;&lt;/p&gt;&lt;hr size=&quot;1&quot;&gt;&lt;p style=&quot;margin:0px;margin-left:4px;&quot;&gt;&amp;nbsp;item: EnumeratedItem&lt;br&gt;&lt;/p&gt;&lt;hr size=&quot;1&quot;&gt;&lt;p style=&quot;margin:0px;margin-left:4px;&quot;&gt;&lt;br&gt;&lt;/p&gt;" style="verticalAlign=top;align=left;overflow=fill;fontSize=12;fontFamily=Verdana;html=1;sketch=0;strokeWidth=2;" vertex="1" parent="1">
          <mxGeometry x="-2100" y="719.5699999999999" width="160" height="108.37" as="geometry" />
        </mxCell>
        <mxCell id="UCvxWR03_ax1GN8wgk-j-38" value="" style="endArrow=classic;html=1;sketch=0;fontFamily=Verdana;curved=1;" edge="1" parent="1" source="UCvxWR03_ax1GN8wgk-j-15" target="UCvxWR03_ax1GN8wgk-j-37">
          <mxGeometry width="50" height="50" relative="1" as="geometry">
            <mxPoint x="-1576.2958149779738" y="565.25" as="sourcePoint" />
            <mxPoint x="-1546.6552863436123" y="654.25" as="targetPoint" />
          </mxGeometry>
        </mxCell>
        <mxCell id="UCvxWR03_ax1GN8wgk-j-39" value="&lt;p style=&quot;margin:0px;margin-top:4px;text-align:center;&quot;&gt;&lt;i&gt;«enumeration»&lt;/i&gt;&lt;br&gt;&lt;b&gt;NprCode&lt;/b&gt;&lt;/p&gt;&lt;hr size=&quot;1&quot;&gt;&lt;p style=&quot;margin:0px;margin-left:4px;&quot;&gt;+ id: EnumeratedItem&lt;br&gt;&lt;/p&gt;&lt;p style=&quot;margin:0px;margin-left:4px;&quot;&gt;+ descriptor: Descriptor&lt;/p&gt;&lt;hr size=&quot;1&quot;&gt;&lt;p style=&quot;margin:0px;margin-left:4px;&quot;&gt;&lt;br&gt;&lt;/p&gt;" style="verticalAlign=top;align=left;overflow=fill;fontSize=12;fontFamily=Verdana;html=1;sketch=0;strokeWidth=2;" vertex="1" parent="1">
          <mxGeometry x="-2180" y="581.25" width="180" height="100" as="geometry" />
        </mxCell>
        <mxCell id="UCvxWR03_ax1GN8wgk-j-40" value="" style="endArrow=classic;html=1;sketch=0;fontFamily=Verdana;curved=1;exitX=0;exitY=1;exitDx=0;exitDy=0;" edge="1" parent="1" source="UCvxWR03_ax1GN8wgk-j-15" target="UCvxWR03_ax1GN8wgk-j-39">
          <mxGeometry width="50" height="50" relative="1" as="geometry">
            <mxPoint x="-1797.7662000000005" y="565.335" as="sourcePoint" />
            <mxPoint x="-1918.75" y="574.0607617979797" as="targetPoint" />
          </mxGeometry>
        </mxCell>
        <mxCell id="UCvxWR03_ax1GN8wgk-j-42" value="&lt;p style=&quot;margin:0px;margin-top:4px;text-align:center;&quot;&gt;&lt;b style=&quot;background-color: initial;&quot;&gt;MatterState&lt;/b&gt;&lt;br&gt;&lt;/p&gt;&lt;hr size=&quot;1&quot;&gt;&lt;p style=&quot;margin:0px;margin-left:4px;&quot;&gt;&amp;nbsp;item: EnumeratedItem&lt;br&gt;&lt;/p&gt;&lt;hr size=&quot;1&quot;&gt;&lt;p style=&quot;margin:0px;margin-left:4px;&quot;&gt;&lt;br&gt;&lt;/p&gt;" style="verticalAlign=top;align=left;overflow=fill;fontSize=12;fontFamily=Verdana;html=1;sketch=0;strokeWidth=2;" vertex="1" parent="1">
          <mxGeometry x="-2120" y="340" width="160" height="84.25" as="geometry" />
        </mxCell>
        <mxCell id="UCvxWR03_ax1GN8wgk-j-43" value="" style="endArrow=classic;html=1;sketch=0;fontFamily=Verdana;curved=1;" edge="1" parent="1" source="UCvxWR03_ax1GN8wgk-j-15" target="UCvxWR03_ax1GN8wgk-j-42">
          <mxGeometry width="50" height="50" relative="1" as="geometry">
            <mxPoint x="-1944.8842" y="579.0250000000001" as="sourcePoint" />
            <mxPoint x="-1779.8695992030039" y="855.25" as="targetPoint" />
          </mxGeometry>
        </mxCell>
        <mxCell id="UCvxWR03_ax1GN8wgk-j-44" value="0..*" style="text;html=1;strokeColor=none;fillColor=none;align=center;verticalAlign=middle;whiteSpace=wrap;rounded=0;" vertex="1" parent="1">
          <mxGeometry x="-2331" y="693.75" width="60" height="30" as="geometry" />
        </mxCell>
        <mxCell id="UCvxWR03_ax1GN8wgk-j-54" value="" style="endArrow=classic;html=1;sketch=0;fontFamily=Verdana;curved=1;entryX=0.521;entryY=0.002;entryDx=0;entryDy=0;entryPerimeter=0;" edge="1" parent="1" source="UCvxWR03_ax1GN8wgk-j-27" target="UCvxWR03_ax1GN8wgk-j-39">
          <mxGeometry width="50" height="50" relative="1" as="geometry">
            <mxPoint x="-1925" y="476.25" as="sourcePoint" />
            <mxPoint x="-2076" y="471.25" as="targetPoint" />
            <Array as="points">
              <mxPoint x="-2090" y="574.25" />
            </Array>
          </mxGeometry>
        </mxCell>
        <mxCell id="UCvxWR03_ax1GN8wgk-j-55" value="" style="endArrow=classic;html=1;sketch=0;fontFamily=Verdana;curved=1;exitX=0.009;exitY=0.436;exitDx=0;exitDy=0;exitPerimeter=0;" edge="1" parent="1" source="UCvxWR03_ax1GN8wgk-j-15" target="UCvxWR03_ax1GN8wgk-j-27">
          <mxGeometry width="50" height="50" relative="1" as="geometry">
            <mxPoint x="-2107" y="545.25" as="sourcePoint" />
            <mxPoint x="-2075" y="593.25" as="targetPoint" />
          </mxGeometry>
        </mxCell>
        <mxCell id="UCvxWR03_ax1GN8wgk-j-56" value="0..*" style="text;html=1;strokeColor=none;fillColor=none;align=center;verticalAlign=middle;whiteSpace=wrap;rounded=0;" vertex="1" parent="1">
          <mxGeometry x="-2060" y="488.5" width="60" height="30" as="geometry" />
        </mxCell>
        <mxCell id="UCvxWR03_ax1GN8wgk-j-57" value="0..*" style="text;html=1;strokeColor=none;fillColor=none;align=center;verticalAlign=middle;whiteSpace=wrap;rounded=0;" vertex="1" parent="1">
          <mxGeometry x="-2100" y="554.25" width="60" height="30" as="geometry" />
        </mxCell>
      </root>
    </mxGraphModel>
  </diagram>
</mxfile>
